<svg width="24" height="24" fill="none" xmlns="http://www.w3.org/2000/svg"><path d="M14.813 4.5H9.186A4.688 4.688 0 0 0 4.5 9.188v5.624c0 2.589 2.1 4.688 4.688 4.688h5.624c2.589 0 4.688-2.1 4.688-4.688V9.189c0-2.589-2.1-4.688-4.688-4.688Zm3.28 10.313a3.285 3.285 0 0 1-3.28 3.28H9.186a3.285 3.285 0 0 1-3.28-3.28V9.186a3.285 3.285 0 0 1 3.28-3.28h5.626a3.285 3.285 0 0 1 3.28 3.28v5.626Z" fill="#fff"/><path d="M12 8.25a3.75 3.75 0 1 0 0 7.5 3.75 3.75 0 0 0 0-7.5Zm0 6.094A2.347 2.347 0 0 1 9.656 12 2.346 2.346 0 0 1 12 9.656 2.346 2.346 0 0 1 14.344 12 2.347 2.347 0 0 1 12 14.344ZM16.031 8.469a.5.5 0 1 0 0-1 .5.5 0 0 0 0 1Z" fill="#fff"/></svg>