<svg width="24" height="30" fill="none" xmlns="http://www.w3.org/2000/svg"><g filter="url(#a)" fill="#fff"><path d="M12.422 5.602a2.688 2.688 0 0 0-2.684 2.685 2.688 2.688 0 0 0 2.684 2.684 2.688 2.688 0 0 0 2.685-2.684 2.688 2.688 0 0 0-2.685-2.685Zm0 4.602a1.92 1.92 0 0 1-1.917-1.917 1.92 1.92 0 0 1 1.917-1.918 1.92 1.92 0 0 1 1.918 1.918 1.92 1.92 0 0 1-1.918 1.917Z"/><path d="M17.555 3.154A7.307 7.307 0 0 0 12.355 1a7.306 7.306 0 0 0-5.2 2.154c-2.571 2.57-2.89 7.407-.692 10.337L12.355 22l5.883-8.498c2.207-2.941 1.888-7.778-.683-10.348Zm.061 9.9-5.261 7.598-5.27-7.61c-1.994-2.658-1.708-7.026.612-9.346a6.544 6.544 0 0 1 4.658-1.929c1.76 0 3.413.685 4.658 1.93 2.32 2.32 2.606 6.687.603 9.357Z"/></g><defs><filter id="a" x="-4" y="0" width="32" height="32" filterUnits="userSpaceOnUse" color-interpolation-filters="sRGB"><feFlood flood-opacity="0" result="BackgroundImageFix"/><feColorMatrix in="SourceAlpha" values="0 0 0 0 0 0 0 0 0 0 0 0 0 0 0 0 0 0 127 0" result="hardAlpha"/><feOffset dy="4"/><feGaussianBlur stdDeviation="2"/><feComposite in2="hardAlpha" operator="out"/><feColorMatrix values="0 0 0 0 0 0 0 0 0 0 0 0 0 0 0 0 0 0 0.25 0"/><feBlend in2="BackgroundImageFix" result="effect1_dropShadow_1_25"/><feBlend in="SourceGraphic" in2="effect1_dropShadow_1_25" result="shape"/></filter></defs></svg>