<svg width="24" height="24" fill="none" xmlns="http://www.w3.org/2000/svg"><path d="M22.889 17.74a1.617 1.617 0 0 0-.072-.148c-.364-.712-1.06-1.586-2.088-2.622l-.022-.024-.01-.011-.011-.012h-.012c-.466-.483-.761-.807-.885-.973-.226-.316-.277-.637-.153-.961.087-.245.415-.763.984-1.554.299-.42.535-.755.71-1.008 1.261-1.82 1.808-2.982 1.64-3.488l-.065-.119c-.043-.07-.156-.136-.338-.195-.183-.06-.416-.07-.7-.03l-3.15.024c-.05-.02-.123-.018-.218.006l-.142.035-.055.03-.043.036a.503.503 0 0 0-.12.124.832.832 0 0 0-.11.208 20.135 20.135 0 0 1-1.17 2.669c-.27.49-.517.915-.744 1.275-.225.36-.415.625-.568.795-.153.17-.291.306-.416.41-.123.102-.218.146-.284.13a7.407 7.407 0 0 1-.186-.048.768.768 0 0 1-.246-.29 1.38 1.38 0 0 1-.125-.463 5.478 5.478 0 0 1-.039-.48c-.003-.135-.002-.325.006-.57.007-.245.01-.411.01-.498 0-.3.006-.627.017-.979l.027-.836c.008-.206.011-.423.011-.653 0-.23-.012-.409-.038-.54a1.952 1.952 0 0 0-.115-.38.627.627 0 0 0-.224-.284 1.21 1.21 0 0 0-.366-.16c-.386-.095-.878-.146-1.476-.154-1.356-.016-2.227.079-2.613.285a1.498 1.498 0 0 0-.416.355c-.13.174-.15.27-.054.285.437.071.747.241.929.51l.066.142c.05.103.102.285.153.546.05.261.084.55.098.866.036.577.036 1.072 0 1.483-.037.411-.07.732-.104.961a2.048 2.048 0 0 1-.279.818.196.196 0 0 1-.054.06.762.762 0 0 1-.296.06c-.102 0-.226-.056-.371-.167a2.72 2.72 0 0 1-.454-.457 6.126 6.126 0 0 1-.53-.812c-.197-.348-.401-.76-.613-1.234l-.175-.344c-.109-.222-.258-.544-.448-.967a19.48 19.48 0 0 1-.503-1.228.779.779 0 0 0-.262-.38l-.055-.035a1.091 1.091 0 0 0-.426-.178L2.7 6.594c-.306 0-.514.076-.623.226l-.044.071a.412.412 0 0 0-.033.19c0 .087.022.194.066.32a40.7 40.7 0 0 0 1.426 3.227 37.11 37.11 0 0 0 1.34 2.503c.379.633.765 1.23 1.159 1.791.393.562.654.922.781 1.08.128.158.228.277.301.356l.274.284c.175.19.431.418.77.683.34.265.715.526 1.127.783.412.257.89.466 1.438.628a4.602 4.602 0 0 0 1.596.196h1.257c.255-.024.448-.11.58-.26l.043-.06a.827.827 0 0 0 .082-.22c.026-.098.038-.207.038-.326-.007-.34.017-.646.071-.919a2.56 2.56 0 0 1 .187-.617c.069-.138.147-.255.235-.35a.97.97 0 0 1 .186-.172.69.69 0 0 1 .087-.041c.175-.064.38-.002.618.184.237.186.459.415.667.688.208.273.457.58.749.92.291.34.547.592.765.758l.219.143c.146.095.335.182.568.261.233.079.437.099.613.06l2.799-.048c.276 0 .492-.05.645-.148.153-.1.244-.208.273-.327a.995.995 0 0 0 .005-.403 1.582 1.582 0 0 0-.076-.315Z" fill="#fff"/></svg>