<svg aria-hidden="true" style="position: absolute; width: 0; height: 0; overflow: hidden;" version="1.1" xmlns="http://www.w3.org/2000/svg" xmlns:xlink="http://www.w3.org/1999/xlink">
<defs>
<symbol id="icon-bench" viewBox="0 0 32 32">
<path d="M29.333 18.133c0.295 0 0.534-0.239 0.534-0.533v-2.133c0-0.294-0.238-0.534-0.534-0.534h-2.666v-0.533c0-0.295-0.239-0.533-0.533-0.533s-0.533 0.239-0.533 0.533v0.533h-14.933v-0.533c-0.008-0.288-0.244-0.519-0.533-0.519s-0.525 0.231-0.533 0.518l-0 0.001v0.533h-2.667c-0.294 0-0.533 0.239-0.533 0.534v2.133c0 0.294 0.239 0.533 0.533 0.533h22.4zM7.467 17.067v-1.067h21.333v1.067h-21.333zM19.2 11.733c-0.862 0-1.42 0.656-1.481 0.731-0.074 0.090-0.119 0.207-0.119 0.334 0 0.165 0.075 0.312 0.193 0.409l0.001 0.001c0.092 0.076 0.211 0.122 0.341 0.122 0.164 0 0.311-0.073 0.409-0.189l0.001-0.001c0.002-0.004 0.291-0.34 0.656-0.34s0.653 0.336 0.653 0.336c0.099 0.121 0.247 0.197 0.414 0.197 0.294 0 0.533-0.239 0.533-0.533 0-0.128-0.045-0.245-0.12-0.337l0.001 0.001c-0.061-0.076-0.618-0.731-1.48-0.731z"></path>
<path d="M29.333 22.4c0.295 0 0.534-0.239 0.534-0.533v-2.134c0-0.294-0.238-0.533-0.534-0.533h-2.666v-0.533c0-0.295-0.239-0.533-0.533-0.533s-0.533 0.239-0.533 0.533v0.533h-14.933v-0.533c-0.008-0.288-0.244-0.519-0.533-0.519s-0.525 0.231-0.533 0.518l-0 0.001v0.533h-2.667c-0.294 0-0.533 0.239-0.533 0.533v2.134c0 0.294 0.239 0.533 0.533 0.533h22.4zM7.467 21.333v-1.066h21.333v1.066h-21.333zM21.986 10.469c0.098 0.121 0.247 0.198 0.414 0.198 0.128 0 0.246-0.045 0.337-0.121l-0.001 0.001c0.121-0.098 0.197-0.247 0.197-0.414 0-0.128-0.045-0.245-0.12-0.337l0.001 0.001c-0.061-0.075-0.618-0.73-1.481-0.73s-1.42 0.655-1.48 0.73c-0.074 0.090-0.119 0.207-0.119 0.335 0 0.165 0.075 0.312 0.193 0.409l0.001 0.001c0.226 0.188 0.56 0.154 0.749-0.068 0.003-0.004 0.292-0.341 0.656-0.341s0.653 0.336 0.653 0.336zM0.536 6.987c0.027 0.272 0.256 0.48 0.531 0.48h3.2c0.274 0 0.503-0.208 0.53-0.48l0.534-5.334c0.002-0.016 0.003-0.034 0.003-0.053 0-0.294-0.239-0.533-0.533-0.533-0 0-0 0-0 0h-1.6v-0.534c-0.008-0.288-0.244-0.519-0.533-0.519s-0.525 0.231-0.533 0.518l-0 0.001v0.534h-1.6c-0 0-0 0-0 0-0.294 0-0.533 0.239-0.533 0.533 0 0.019 0.001 0.038 0.003 0.056l-0-0.002 0.533 5.334zM4.211 2.133l-0.427 4.267h-2.235l-0.426-4.267h3.088z"></path>
<path d="M14.933 12.267c0 0.596 0.244 1.151 0.686 1.561 0.095 0.089 0.222 0.143 0.363 0.143 0.154 0 0.293-0.066 0.39-0.171l0-0c0.2-0.216 0.188-0.554-0.028-0.754-0.212-0.193-0.345-0.47-0.345-0.778v-0c0.003-0.455 0.29-0.843 0.693-0.994l0.007-0.002c0.205-0.078 0.348-0.273 0.348-0.501 0-0.154-0.065-0.293-0.17-0.391l-0-0c-0.212-0.193-0.344-0.47-0.344-0.778 0-0 0-0 0-0v0c0-0.555 0.437-1.019 0.994-1.057 0.279-0.019 0.497-0.25 0.497-0.532 0-0.139-0.053-0.266-0.141-0.361l0 0c-0.175-0.188-0.283-0.44-0.285-0.717v-0c0-0.554 0.437-1.018 0.994-1.057 0.279-0.019 0.498-0.25 0.498-0.532 0-0.139-0.053-0.266-0.141-0.361l0 0c-0.175-0.188-0.282-0.44-0.284-0.717v-0c0-0.477 0.325-0.898 0.789-1.024 0.229-0.063 0.394-0.269 0.394-0.515 0-0.072-0.014-0.14-0.040-0.202l0.001 0.004c-0.049-0.117-0.078-0.254-0.079-0.396v-0c0.001-0.589 0.478-1.066 1.067-1.066h0c0.589 0.001 1.066 0.478 1.067 1.066v0c0 0.133-0.027 0.266-0.078 0.397-0.024 0.059-0.038 0.127-0.038 0.199 0 0.245 0.165 0.451 0.391 0.514l0.004 0.001c0.456 0.126 0.787 0.536 0.789 1.023v0c-0.002 0.278-0.11 0.529-0.285 0.718l0.001-0.001c-0.086 0.095-0.139 0.221-0.139 0.36 0 0.282 0.218 0.512 0.495 0.532l0.002 0c0.557 0.039 0.994 0.503 0.994 1.057-0.002 0.278-0.109 0.53-0.285 0.718l0.001-0.001c-0.086 0.095-0.139 0.221-0.139 0.36 0 0.282 0.218 0.512 0.495 0.532l0.002 0c0.557 0.038 0.994 0.502 0.994 1.057 0 0.296-0.122 0.573-0.345 0.779-0.105 0.098-0.17 0.237-0.17 0.391 0 0.228 0.143 0.423 0.345 0.5l0.004 0.001c0.41 0.154 0.697 0.541 0.7 0.996v0c0 0.294 0.239 0.533 0.533 0.533s0.533-0.239 0.533-0.533v0c-0.002-0.665-0.309-1.259-0.788-1.649l-0.004-0.003c0.163-0.292 0.258-0.64 0.258-1.010 0-0.002 0-0.003 0-0.005v0c0-0.834-0.491-1.567-1.206-1.914 0.089-0.223 0.14-0.482 0.14-0.753v-0c0-0.834-0.491-1.567-1.207-1.914 0.089-0.223 0.14-0.482 0.14-0.753v-0c-0.002-0.791-0.435-1.48-1.076-1.846l-0.010-0.006c0.012-0.084 0.018-0.18 0.018-0.279 0-1.179-0.954-2.134-2.133-2.136h-0c-1.178 0.002-2.132 0.957-2.132 2.136 0 0.098 0.007 0.195 0.020 0.29l-0.001-0.011c-0.651 0.372-1.084 1.061-1.086 1.852v0c0 0.259 0.048 0.514 0.14 0.753-0.716 0.347-1.207 1.080-1.207 1.914 0 0.259 0.048 0.514 0.14 0.753-0.716 0.347-1.206 1.080-1.206 1.914 0 0.361 0.090 0.707 0.258 1.015-0.483 0.393-0.789 0.986-0.792 1.651v0z"></path>
<path d="M20.064 7.424c0.060 0.025 0.13 0.040 0.203 0.040 0.221 0 0.41-0.134 0.492-0.324l0.001-0.003c0.010-0.026 0.025-0.054 0.040-0.082 0.015 0.027 0.029 0.054 0.039 0.080 0.086 0.187 0.271 0.315 0.487 0.315 0.295 0 0.534-0.239 0.534-0.534 0-0.065-0.012-0.128-0.033-0.186l0.001 0.004c-0.059-0.144-0.384-0.866-1.028-0.866s-0.969 0.722-1.028 0.866c-0.025 0.059-0.039 0.128-0.039 0.2 0 0.221 0.135 0.411 0.327 0.491l0.003 0.001zM31.467 30.933h-8.534c-0.295 0-0.533 0.239-0.533 0.533s0.239 0.533 0.533 0.533h8.534c0.295 0 0.533-0.239 0.533-0.533s-0.239-0.533-0.533-0.533v0zM31.467 23.467h-4.8v-0.534c0-0.295-0.239-0.533-0.533-0.533s-0.533 0.239-0.533 0.533v0.534h-14.933v-0.534c-0.008-0.288-0.244-0.519-0.533-0.519s-0.525 0.231-0.533 0.518l-0 0.001v0.534h-4.8c-0.294 0-0.533 0.239-0.533 0.533v2.133c0 0.294 0.239 0.534 0.533 0.534h1.6v2.666c0.011 0.286 0.246 0.513 0.533 0.513s0.522-0.227 0.533-0.512l0-0.001v-2.666h21.334v2.666c0 0.294 0.239 0.533 0.533 0.533s0.533-0.239 0.533-0.533v-2.666h1.6c0.295 0 0.534-0.239 0.534-0.534v-2.133c0-0.294-0.238-0.533-0.533-0.533zM30.933 25.6h-25.6v-1.067h25.6v1.067z"></path>
<path d="M8 30.933h-4.8v-21.866c-0.008-0.288-0.244-0.519-0.533-0.519s-0.525 0.231-0.533 0.518l-0 0.001v21.866h-1.6c-0.288 0.008-0.519 0.244-0.519 0.533s0.231 0.525 0.518 0.533l0.001 0h7.467c0.288-0.008 0.519-0.244 0.519-0.533s-0.231-0.525-0.518-0.533l-0.001-0zM20.8 30.933h-1.067c-0.295 0-0.533 0.239-0.533 0.533s0.239 0.533 0.533 0.533h1.067c0.295 0 0.533-0.239 0.533-0.533s-0.239-0.533-0.533-0.533v0zM16.533 30.933h-5.333c-0.288 0.008-0.519 0.244-0.519 0.533s0.231 0.525 0.518 0.533l0.001 0h5.333c0.295 0 0.533-0.239 0.533-0.533s-0.239-0.533-0.533-0.533v0z"></path>
</symbol>
<symbol id="icon-bicycle" viewBox="0 0 32 32">
<path d="M8 27.2h-7.467c-0.295 0-0.533 0.239-0.533 0.533s0.239 0.533 0.533 0.533h7.467c0.295 0 0.534-0.239 0.534-0.534s-0.239-0.534-0.534-0.534v0zM6.4 26.133c3.529 0 6.4-2.872 6.4-6.4 0-1.767-0.704-3.412-1.984-4.633-0.093-0.082-0.216-0.131-0.351-0.131-0.295 0-0.534 0.239-0.534 0.534 0 0.143 0.056 0.274 0.148 0.369l-0-0c1.019 0.966 1.654 2.33 1.654 3.842 0 0.007 0 0.013-0 0.020v-0.001c0 2.941-2.392 5.333-5.333 5.333s-5.333-2.392-5.333-5.333c0-2.942 2.392-5.334 5.333-5.334 0.294 0 0.533-0.239 0.533-0.533s-0.239-0.533-0.533-0.533v0c-3.529 0-6.4 2.871-6.4 6.4s2.871 6.4 6.4 6.4z"></path>
<path d="M9.067 11.199h0.27l-3.081 7.481c-0.523 0.072-0.921 0.515-0.923 1.052v0c0 0.589 0.478 1.067 1.067 1.067h0c0.589-0.001 1.066-0.478 1.067-1.066v-0c0-0.244-0.086-0.466-0.224-0.646l3.010-7.308 3.375 4.901c0.097 0.141 0.258 0.232 0.439 0.232 0.113 0 0.218-0.035 0.304-0.096l-0.002 0.001c0.243-0.168 0.304-0.499 0.136-0.742l-3.358-4.876h1.119c0.882 0 1.6-0.718 1.6-1.6s-0.718-1.6-1.6-1.6h-3.2c-0.295 0-0.533 0.238-0.533 0.534v2.133c0 0.294 0.238 0.533 0.533 0.533zM9.6 9.066h2.667c0.288 0.008 0.519 0.244 0.519 0.533s-0.231 0.525-0.518 0.533l-0.001 0h-2.667v-1.067zM25.067 13.866c0 0.294 0.238 0.533 0.533 0.533 2.941 0 5.333 2.392 5.333 5.334s-2.392 5.333-5.333 5.333-5.333-2.393-5.333-5.333c0-1.598 0.708-3.099 1.943-4.118 0.117-0.099 0.191-0.245 0.191-0.409 0-0.295-0.239-0.534-0.534-0.534-0.128 0-0.246 0.045-0.338 0.12l0.001-0.001c-1.427 1.18-2.33 2.95-2.33 4.932 0 0.003 0 0.006 0 0.008v-0c0 3.529 2.871 6.4 6.4 6.4s6.4-2.871 6.4-6.4-2.871-6.4-6.4-6.4c-0.295 0-0.533 0.239-0.533 0.534zM16.533 27.2h-5.333c-0.295 0-0.533 0.239-0.533 0.533s0.239 0.533 0.533 0.533h5.333c0.295 0 0.533-0.239 0.533-0.533s-0.239-0.533-0.533-0.533v0z"></path>
<path d="M16.533 17.142v-1.676c0.295 0 0.533-0.239 0.533-0.533s-0.239-0.533-0.533-0.533h-1.066c-0.295 0-0.533 0.239-0.533 0.533s0.239 0.533 0.533 0.533v0 1.676c-0.918 0.238-1.6 1.066-1.6 2.057s0.682 1.819 1.6 2.058v1.676c-0.294 0-0.533 0.239-0.533 0.533s0.239 0.533 0.533 0.533h1.066c0.294 0 0.533-0.239 0.533-0.533s-0.239-0.533-0.533-0.533v0-1.676c0.918-0.239 1.6-1.066 1.6-2.058s-0.682-1.819-1.6-2.058zM16 20.266c-0.589-0.001-1.066-0.478-1.067-1.067v-0c0.001-0.589 0.478-1.066 1.067-1.066h0c0.589 0.001 1.066 0.478 1.067 1.066v0c-0.001 0.589-0.478 1.066-1.067 1.067h-0zM24.778 19.061c-0.151 0.181-0.244 0.416-0.245 0.672v0c0.001 0.589 0.478 1.066 1.067 1.066h0c0.589-0.001 1.066-0.478 1.067-1.066v-0c0-0.528-0.387-0.964-0.89-1.049l-2.407-6.418h3.808c0.638 0 1.010-0.51 1.079-0.962l0.533-2.667c0.007-0.032 0.011-0.068 0.011-0.106 0-0.294-0.238-0.532-0.532-0.532-0 0-0 0-0.001 0h-4.8c-0.295 0-0.533 0.239-0.533 0.533s0.239 0.533 0.533 0.533v0h4.149l-0.408 2.040c-0.008 0.037-0.031 0.089-0.031 0.093h-4.208l-1.67-4.454c-0.001-0.002-0.002-0.003-0.003-0.006s-0.001-0.004-0.001-0.006l-1.067-2.667c-0.083-0.193-0.272-0.326-0.492-0.326-0.295 0-0.534 0.239-0.534 0.534 0 0.068 0.013 0.133 0.036 0.192l-0.001-0.004 0.972 2.427-2.006 3.51c-0.045 0.076-0.071 0.168-0.071 0.266 0 0.294 0.238 0.532 0.532 0.532 0 0 0.001 0 0.001 0h-0c0 0 0.001 0 0.001 0 0.197 0 0.369-0.107 0.461-0.266l0.001-0.003 1.57-2.747 1.283 3.422-4.064 4.572c-0.084 0.094-0.135 0.218-0.135 0.355 0 0.295 0.239 0.533 0.533 0.533 0.158 0 0.3-0.069 0.398-0.178l0-0.001 3.691-4.152 2.372 6.326zM31.467 27.2h-8.534c-0.295 0-0.533 0.239-0.533 0.533s0.239 0.533 0.533 0.533h8.534c0.295 0 0.533-0.239 0.533-0.533s-0.239-0.533-0.533-0.533v0zM20.8 27.2h-1.067c-0.295 0-0.533 0.239-0.533 0.533s0.239 0.533 0.533 0.533h1.067c0.295 0 0.534-0.239 0.534-0.534s-0.239-0.534-0.534-0.534v0z"></path>
</symbol>
<symbol id="icon-building" viewBox="0 0 32 32">
<path d="M22.933 29.867h-14.933c-0.294 0-0.533 0.239-0.533 0.533v1.067c0.011 0.286 0.246 0.513 0.533 0.513s0.522-0.227 0.533-0.512l0-0.001v-0.534h14.4c0.286-0.011 0.513-0.246 0.513-0.533s-0.227-0.522-0.512-0.533l-0.001-0zM11.733 13.333c0 0.294 0.239 0.534 0.534 0.534h2.133c0.294 0 0.533-0.239 0.533-0.534v-3.2c0-0.294-0.239-0.533-0.533-0.533h-2.133c-0.294 0-0.534 0.239-0.534 0.533v3.2zM12.8 10.667h1.067v2.133h-1.067v-2.133zM6.933 6.4h-6.4c-0.294 0-0.533 0.239-0.533 0.533v10.667c0.008 0.288 0.244 0.519 0.533 0.519s0.525-0.231 0.533-0.518l0-0.001v-10.133h5.866c0.288-0.008 0.519-0.244 0.519-0.533s-0.231-0.525-0.518-0.533l-0.001-0zM25.6 26.133c0 0.294 0.239 0.534 0.533 0.534h2.134c0.294 0 0.533-0.239 0.533-0.534v-3.2c0-0.294-0.239-0.533-0.534-0.533h-2.133c-0.294 0-0.533 0.239-0.533 0.533v3.2zM26.667 23.467h1.066v2.133h-1.066v-2.133zM2.667 19.2c-2.636 0-2.667 6.864-2.667 6.933 0 1.288 0.918 2.365 2.133 2.613v2.721c0.008 0.288 0.244 0.519 0.533 0.519s0.525-0.231 0.533-0.518l0-0.001v-2.721c1.215-0.248 2.133-1.325 2.133-2.613 0-0.069-0.030-6.933-2.666-6.933zM2.667 27.733c-0.882 0-1.6-0.718-1.6-1.6 0-2.657 0.714-5.866 1.6-5.866s1.6 3.21 1.6 5.866c0 0.882-0.718 1.6-1.6 1.6zM5.867 16h-2.134c-0.294 0-0.533 0.239-0.533 0.533v1.067c0.011 0.286 0.246 0.513 0.533 0.513s0.522-0.227 0.533-0.512l0-0.001v-0.533h1.067v2.666c0.008 0.288 0.244 0.519 0.533 0.519s0.525-0.231 0.533-0.518l0-0.001v-3.2c0-0.294-0.239-0.533-0.533-0.533zM26.133 13.867h2.134c0.294 0 0.533-0.239 0.533-0.534v-3.2c0-0.294-0.239-0.533-0.534-0.533h-2.133c-0.294 0-0.533 0.239-0.533 0.533v3.2c0 0.294 0.239 0.534 0.533 0.534zM26.667 10.667h1.066v2.133h-1.066v-2.133z"></path>
<path d="M5.867 9.6h-2.134c-0.294 0-0.533 0.239-0.533 0.533v3.2c0 0.294 0.239 0.534 0.533 0.534h2.133c0.294 0 0.534-0.239 0.534-0.534v-3.2c0-0.294-0.239-0.533-0.533-0.533zM5.333 12.8h-1.066v-2.133h1.066v2.133zM17.067 13.333c0 0.294 0.239 0.534 0.533 0.534h2.133c0.294 0 0.534-0.239 0.534-0.534v-3.2c0-0.294-0.239-0.533-0.534-0.533h-2.133c-0.294 0-0.533 0.239-0.533 0.533v3.2zM18.133 10.667h1.067v2.133h-1.067v-2.133zM31.467 6.4h-6.4c-0.288 0.008-0.519 0.244-0.519 0.533s0.231 0.525 0.518 0.533l0.001 0h5.866v21.431c-0.158-0.060-0.341-0.096-0.532-0.098h-0.001c-0.092 0-0.184 0.008-0.274 0.024-0.369-0.655-1.060-1.091-1.852-1.091-0.002 0-0.005 0-0.007 0h0c-0.002 0-0.005 0-0.007 0-0.793 0-1.484 0.435-1.847 1.080l-0.006 0.011c-0.082-0.015-0.176-0.023-0.272-0.023-0.884 0-1.6 0.716-1.602 1.599v0c0 0.882 0.718 1.6 1.6 1.6h4.266c0.882 0 1.6-0.718 1.6-1.6v-23.467c0-0.294-0.239-0.533-0.533-0.533zM30.4 30.933h-4.267c-0.294-0-0.533-0.239-0.533-0.533v-0c0-0.294 0.24-0.533 0.533-0.533 0.102 0 0.2 0.029 0.289 0.087 0.146 0.094 0.328 0.111 0.49 0.046s0.28-0.205 0.319-0.374c0.111-0.476 0.531-0.826 1.034-0.826 0.001 0 0.002 0 0.002 0h-0c0.001 0 0.001 0 0.002 0 0.502 0 0.923 0.349 1.032 0.818l0.001 0.007c0.038 0.169 0.158 0.309 0.318 0.374s0.344 0.048 0.49-0.046c0.347-0.224 0.822 0.050 0.822 0.446 0 0.294-0.239 0.533-0.533 0.533zM17.6 7.467h2.133c0.294 0 0.534-0.239 0.534-0.534v-3.2c0-0.294-0.239-0.533-0.534-0.533h-2.133c-0.294 0-0.533 0.239-0.533 0.533v3.2c0 0.294 0.239 0.534 0.533 0.534zM18.133 4.267h1.067v2.133h-1.067v-2.133zM17.067 19.733c0 0.294 0.239 0.534 0.533 0.534h2.133c0.294 0 0.534-0.239 0.534-0.534v-3.2c0-0.294-0.239-0.533-0.534-0.533h-2.133c-0.294 0-0.533 0.239-0.533 0.533v3.2zM18.133 17.067h1.067v2.133h-1.067v-2.133zM12.267 7.467h2.133c0.294 0 0.533-0.239 0.533-0.534v-3.2c0-0.294-0.239-0.533-0.533-0.533h-2.133c-0.294 0-0.534 0.239-0.534 0.533v3.2c0 0.294 0.239 0.534 0.534 0.534zM12.8 4.267h1.067v2.133h-1.067v-2.133zM15.621 25.755c-0.096 0.101-0.154 0.24-0.154 0.378s0.058 0.278 0.154 0.379c0.102 0.096 0.24 0.155 0.379 0.155s0.277-0.059 0.379-0.155c0.096-0.101 0.154-0.24 0.154-0.379s-0.058-0.277-0.154-0.378c-0.203-0.198-0.555-0.198-0.758 0zM11.733 19.733c0 0.294 0.239 0.534 0.534 0.534h2.133c0.294 0 0.533-0.239 0.533-0.534v-3.2c0-0.294-0.239-0.533-0.533-0.533h-2.133c-0.294 0-0.534 0.239-0.534 0.533v3.2zM12.8 17.067h1.067v2.133h-1.067v-2.133z"></path>
<path d="M10.667 22.933c0 0.294 0.239 0.534 0.533 0.534h1.6v4.8c0.011 0.286 0.246 0.513 0.533 0.513s0.522-0.227 0.533-0.512l0-0.001v-4.8h4.267v4.8c0.008 0.288 0.244 0.519 0.533 0.519s0.525-0.231 0.533-0.518l0-0.001v-4.8h1.6c0.288-0.008 0.519-0.244 0.519-0.533s-0.231-0.525-0.518-0.533l-0.001-0h-9.6c-0.294 0-0.533 0.239-0.533 0.533zM25.6 19.733c0 0.294 0.239 0.534 0.533 0.534h2.134c0.294 0 0.533-0.239 0.533-0.534v-3.2c0-0.294-0.239-0.533-0.534-0.533h-2.133c-0.294 0-0.533 0.239-0.533 0.533v3.2zM26.667 17.067h1.066v2.133h-1.066v-2.133z"></path>
<path d="M22.933 0h-13.866c-0.294 0-0.534 0.239-0.534 0.533v27.734c0.008 0.288 0.244 0.519 0.533 0.519s0.525-0.231 0.533-0.518l0-0.001v-27.2h12.8v27.2c0.011 0.286 0.246 0.513 0.533 0.513s0.522-0.227 0.533-0.512l0-0.001v-27.734c0-0.294-0.238-0.533-0.533-0.533z"></path>
</symbol>
<symbol id="icon-facebook" viewBox="0 0 32 32">
<path d="M21.405 6.004l-2.592-0.004c-2.913 0-4.796 1.932-4.796 4.923v2.269h-2.609c-0.225 0-0.408 0.183-0.408 0.408v0 3.288c0 0.225 0.183 0.408 0.408 0.408h2.608v8.296c0 0.227 0.181 0.408 0.408 0.408h3.401c0.225 0 0.408-0.183 0.408-0.408v-8.296h3.049c0.225 0 0.408-0.183 0.408-0.408v0-3.288c0 0 0 0 0 0 0-0.225-0.182-0.407-0.407-0.408h-3.051v-1.925c0-0.925 0.22-1.395 1.425-1.395h1.747c0.225 0 0.408-0.183 0.408-0.408v-3.053c0-0.225-0.183-0.408-0.408-0.408v0z"></path>
</symbol>
<symbol id="icon-fountain" viewBox="0 0 32 32">
<path d="M21.356 1.849c0.073 0 0.146-0.015 0.217-0.047 0.153-0.068 0.307-0.133 0.464-0.192 0.203-0.078 0.344-0.272 0.344-0.498 0-0.068-0.013-0.133-0.036-0.193l0.001 0.004c-0.079-0.203-0.273-0.344-0.5-0.344-0.068 0-0.132 0.013-0.192 0.035l0.004-0.001c-0.176 0.067-0.351 0.14-0.522 0.216-0.188 0.085-0.316 0.271-0.316 0.487 0 0.294 0.239 0.533 0.533 0.533 0 0 0.001 0 0.001 0h-0zM21.333 13.415c0.295 0 0.534-0.238 0.534-0.533v-0.092c0-0.14 0.009-0.278 0.026-0.413 0.038-0.292-0.167-0.56-0.458-0.598-0.022-0.003-0.048-0.005-0.074-0.005-0.27 0-0.492 0.201-0.525 0.462l-0 0.003c-0.023 0.18-0.036 0.366-0.036 0.552v0.092c0 0.295 0.239 0.534 0.534 0.534zM18.667 13.547c0.295 0 0.533-0.239 0.533-0.533v-0.542c0-0.295-0.239-0.533-0.533-0.533s-0.533 0.239-0.533 0.533v0.542c0 0.294 0.238 0.533 0.534 0.533zM21.729 5.111c-0.172 0.094-0.34 0.196-0.502 0.304-0.144 0.097-0.237 0.259-0.237 0.443 0 0.294 0.239 0.533 0.533 0.533 0.11 0 0.213-0.034 0.298-0.091l-0.002 0.001c0.137-0.091 0.279-0.177 0.424-0.257 0.257-0.142 0.352-0.467 0.21-0.724-0.093-0.166-0.267-0.276-0.467-0.276-0.094 0-0.183 0.024-0.26 0.068l0.003-0.001zM14.164 5.057c0.096 0.151 0.262 0.25 0.451 0.25 0.105 0 0.203-0.031 0.286-0.083l-0.002 0.001c0.151-0.096 0.25-0.262 0.25-0.452 0-0.105-0.030-0.203-0.083-0.285l0.001 0.002c-0.122-0.195-0.226-0.349-0.334-0.499l0.019 0.028c-0.098-0.136-0.256-0.223-0.434-0.223-0.295 0-0.534 0.239-0.534 0.534 0 0.116 0.037 0.224 0.101 0.312l-0.001-0.002c0.098 0.136 0.191 0.275 0.28 0.417zM23.915 1.129c0.022 0 0.045-0.002 0.067-0.004 0.165-0.021 0.332-0.037 0.5-0.049 0.279-0.019 0.499-0.25 0.499-0.532 0-0.012-0-0.025-0.001-0.037l0 0.002c-0.020-0.279-0.252-0.497-0.534-0.497-0.012 0-0.024 0-0.035 0.001l0.002-0c-0.19 0.012-0.378 0.031-0.563 0.054-0.265 0.034-0.468 0.258-0.468 0.529 0 0.294 0.239 0.533 0.533 0.533 0 0 0.001 0 0.001 0h-0zM21.938 9.889c-0.078 0.092-0.126 0.213-0.126 0.344 0 0.295 0.239 0.534 0.534 0.534 0.146 0 0.278-0.058 0.374-0.153l-0 0c0.111-0.12 0.233-0.232 0.363-0.336 0.123-0.099 0.202-0.249 0.202-0.418 0-0.295-0.239-0.533-0.533-0.533-0.126 0-0.242 0.044-0.333 0.117l0.001-0.001c-0.172 0.136-0.334 0.287-0.482 0.446zM17.101 5.225c0.080 0.051 0.178 0.082 0.284 0.082 0.189 0 0.355-0.099 0.45-0.248l0.001-0.002c0.089-0.142 0.182-0.281 0.28-0.417 0.062-0.086 0.1-0.194 0.1-0.31 0-0.295-0.239-0.534-0.534-0.534-0.178 0-0.336 0.087-0.433 0.222l-0.001 0.002c-0.11 0.154-0.214 0.31-0.315 0.471-0.051 0.080-0.081 0.178-0.081 0.283 0 0.189 0.099 0.356 0.247 0.45l0.002 0.001zM21.333 15.99c0.295 0 0.534-0.239 0.534-0.533v-0.267c0-0.295-0.239-0.533-0.533-0.533s-0.533 0.239-0.533 0.533v0.267c0 0.294 0.238 0.533 0.533 0.533zM18.656 10.836c0.021 0.003 0.046 0.005 0.072 0.005 0.269 0 0.492-0.199 0.529-0.458l0-0.003c0.022-0.164 0.051-0.326 0.087-0.486 0.007-0.031 0.010-0.067 0.010-0.104 0-0.295-0.239-0.534-0.534-0.534-0.248 0-0.456 0.169-0.516 0.398l-0.001 0.004c-0.043 0.19-0.078 0.384-0.105 0.579-0.003 0.021-0.005 0.046-0.005 0.071 0 0.269 0.2 0.492 0.459 0.528l0.003 0zM15.024 6.872c0.054 0.158 0.102 0.317 0.146 0.479 0.064 0.228 0.27 0.393 0.515 0.393 0.050 0 0.098-0.007 0.143-0.019l-0.004 0.001c0.066-0.018 0.124-0.050 0.176-0.088 0.087 0.066 0.197 0.106 0.316 0.107h0c0.234 0 0.449-0.156 0.514-0.394 0.044-0.162 0.092-0.322 0.146-0.48 0.018-0.051 0.029-0.11 0.029-0.172 0-0.233-0.149-0.431-0.358-0.504l-0.004-0.001c-0.256-0.087-0.526 0.038-0.642 0.275-0.117-0.237-0.387-0.362-0.643-0.275-0.212 0.074-0.361 0.272-0.361 0.505 0 0.062 0.011 0.121 0.030 0.176l-0.001-0.004zM19.114 3.283c0.124 0 0.249-0.043 0.35-0.13 0.126-0.11 0.256-0.217 0.388-0.318 0.127-0.098 0.208-0.251 0.208-0.423 0-0.295-0.239-0.533-0.533-0.533-0.123 0-0.236 0.042-0.326 0.111l0.001-0.001c-0.15 0.115-0.296 0.235-0.438 0.359-0.112 0.098-0.183 0.242-0.183 0.402 0 0.294 0.238 0.533 0.532 0.533h0zM19.528 7.017c-0.117 0.156-0.228 0.317-0.332 0.482-0.051 0.080-0.082 0.178-0.082 0.284 0 0.294 0.238 0.533 0.532 0.534h0c0.177 0 0.35-0.088 0.452-0.249 0.088-0.14 0.182-0.277 0.282-0.409 0.058-0.084 0.093-0.188 0.093-0.301 0-0.295-0.239-0.534-0.534-0.534-0.165 0-0.312 0.075-0.41 0.192l-0.001 0.001zM24.521 4.278c-0.198 0.015-0.392 0.038-0.583 0.070-0.246 0.051-0.428 0.266-0.428 0.523 0 0.295 0.239 0.534 0.534 0.534 0.024 0 0.047-0.002 0.070-0.005l-0.003 0c0.132-0.023 0.301-0.044 0.472-0.058l0.020-0.001c0.276-0.022 0.492-0.252 0.492-0.532 0-0.014-0.001-0.029-0.002-0.043l0 0.002c-0.019-0.276-0.248-0.492-0.527-0.492-0.016 0-0.032 0.001-0.048 0.002l0.002-0zM26.494 1.168c0.166 0.027 0.331 0.058 0.494 0.094 0.041 0.011 0.088 0.018 0.136 0.018 0.295 0 0.534-0.239 0.534-0.534 0-0.262-0.189-0.48-0.438-0.525l-0.003-0.001c-0.183-0.040-0.368-0.075-0.555-0.105-0.026-0.004-0.055-0.007-0.085-0.007-0.265 0-0.484 0.193-0.525 0.447l-0 0.003c-0.004 0.025-0.007 0.055-0.007 0.084 0 0.265 0.193 0.484 0.447 0.525l0.003 0zM27.407 4.661c-0.184-0.066-0.371-0.124-0.56-0.174-0.040-0.011-0.087-0.017-0.135-0.017-0.246 0-0.454 0.166-0.517 0.392l-0.001 0.004c-0.011 0.041-0.018 0.088-0.018 0.136 0 0.246 0.166 0.453 0.393 0.515l0.004 0.001c0.16 0.042 0.318 0.091 0.473 0.147 0.054 0.020 0.116 0.031 0.18 0.031 0.23 0 0.426-0.146 0.501-0.35l0.001-0.004c0.020-0.054 0.032-0.116 0.032-0.181 0-0.23-0.145-0.426-0.349-0.501l-0.004-0.001zM24.85 8.528c-0.283 0.015-0.507 0.247-0.507 0.533 0 0.009 0 0.019 0.001 0.028l-0-0.001c0.014 0.294 0.245 0.518 0.559 0.506 0.164-0.008 0.333-0.003 0.495 0.013 0.021 0.003 0.045 0.005 0.069 0.005 0.295 0 0.534-0.239 0.534-0.534 0-0.281-0.217-0.511-0.492-0.532l-0.002-0c-0.132-0.014-0.285-0.023-0.441-0.023-0.076 0-0.152 0.002-0.227 0.006l0.011-0zM31.072 3.549c0.098 0.107 0.238 0.174 0.394 0.174 0.139 0 0.265-0.053 0.36-0.14l-0 0c0.218-0.198 0.233-0.536 0.035-0.754-0.064-0.070-0.129-0.139-0.195-0.206-0.097-0.099-0.232-0.16-0.381-0.16-0.295 0-0.534 0.239-0.534 0.534 0 0.145 0.058 0.277 0.152 0.373l-0-0c0.058 0.058 0.114 0.118 0.169 0.178zM22.933 20.256h-6.4c-0.295 0-0.533 0.239-0.533 0.533s0.239 0.533 0.533 0.533h6.4c1.496 0 2.667-1.171 2.667-2.667v-1.066c0-0.294-0.238-0.534-0.533-0.534h-18.134c-0.295 0-0.533 0.239-0.533 0.534v1.066c0 1.496 1.171 2.667 2.667 2.667h4.8v2.667c0 0.294 0.239 0.533 0.533 0.533s0.533-0.239 0.533-0.533v-3.2c0-0.294-0.238-0.534-0.533-0.534h-5.333c-0.898 0-1.6-0.703-1.6-1.6v-0.533h17.066v0.533c0 0.897-0.702 1.6-1.6 1.6zM28.259 12.561c0.005 0.075 0.008 0.152 0.008 0.229 0 0.294 0.239 0.533 0.533 0.533s0.533-0.239 0.533-0.533v0c0-0.102-0.004-0.204-0.011-0.305-0.019-0.278-0.249-0.496-0.529-0.496-0.014 0-0.028 0.001-0.042 0.002l0.002-0c-0.278 0.021-0.495 0.251-0.495 0.532 0 0.013 0 0.027 0.001 0.040l-0-0.002zM27.132 9.633c-0.083 0.094-0.133 0.217-0.133 0.353 0 0.159 0.070 0.302 0.18 0.4l0.001 0.001c0.124 0.109 0.239 0.228 0.344 0.354 0.099 0.118 0.245 0.192 0.41 0.192 0.295 0 0.533-0.239 0.533-0.533 0-0.13-0.047-0.25-0.124-0.342l0.001 0.001c-0.143-0.171-0.293-0.325-0.454-0.467l-0.005-0.004c-0.093-0.083-0.217-0.133-0.353-0.133-0.159 0-0.302 0.070-0.399 0.18l-0 0.001zM16.533 12.226c0-0.294-0.239-0.533-0.533-0.533s-0.533 0.239-0.533 0.533v0.593c0 0.294 0.239 0.533 0.533 0.533s0.533-0.239 0.533-0.533v-0.593zM16 14.656c-0.295 0-0.533 0.239-0.533 0.534v0.266c0 0.294 0.239 0.533 0.533 0.533s0.533-0.239 0.533-0.533v-0.266c0-0.294-0.238-0.534-0.533-0.534zM18.133 15.456c0 0.295 0.239 0.533 0.533 0.533s0.533-0.239 0.533-0.533v-0.266c0-0.295-0.239-0.533-0.533-0.533s-0.533 0.239-0.533 0.533v0.266zM16.533 9.59c0-0.084 0.001-0.168 0.004-0.251 0-0.004 0-0.009 0-0.013 0-0.222-0.136-0.411-0.329-0.491l-0.004-0.001c-0.021-0.009-0.044-0.009-0.065-0.015-0.040-0.011-0.078-0.027-0.121-0.028l-0.016-0-0.003 0-0.003-0-0.016 0c-0.043 0.001-0.082 0.017-0.121 0.028-0.021 0.006-0.045 0.006-0.064 0.015-0.196 0.081-0.332 0.27-0.332 0.492 0 0.005 0 0.009 0 0.014v-0.001c0.002 0.084 0.004 0.167 0.004 0.251v0.267c0 0.294 0.239 0.533 0.533 0.533s0.533-0.239 0.533-0.533v-0.267zM12.8 15.456c0 0.295 0.239 0.533 0.533 0.533s0.533-0.239 0.533-0.533v-0.266c0-0.295-0.239-0.533-0.533-0.533s-0.533 0.239-0.533 0.533v0.266zM13.333 13.547c0.295 0 0.534-0.239 0.534-0.533v-0.542c0-0.295-0.239-0.533-0.533-0.533s-0.533 0.239-0.533 0.533v0.542c0 0.294 0.238 0.533 0.533 0.533zM11.2 15.456v-0.266c0-0.294-0.239-0.533-0.533-0.533s-0.533 0.239-0.533 0.533v0 0.266c0 0.294 0.239 0.533 0.533 0.533s0.533-0.239 0.533-0.533v0zM3.725 10.809c0.092 0.077 0.211 0.124 0.341 0.124 0.165 0 0.312-0.075 0.409-0.192l0.001-0.001c0.107-0.129 0.22-0.244 0.341-0.351l0.003-0.003c0.101-0.097 0.164-0.234 0.164-0.386 0-0.295-0.239-0.534-0.534-0.534-0.128 0-0.245 0.045-0.337 0.119l0.001-0.001c-0.165 0.145-0.32 0.304-0.459 0.472-0.077 0.092-0.123 0.211-0.123 0.341 0 0.164 0.074 0.311 0.191 0.409l0.001 0.001z"></path>
<path d="M29.333 25.59h-11.2v-2.667c0-0.294-0.239-0.533-0.533-0.533s-0.533 0.239-0.533 0.533v3.2c0 0.294 0.238 0.533 0.533 0.533h11.2v2.667c0 0.882-0.718 1.6-1.6 1.6h-22.4c-0.882 0-1.6-0.718-1.6-1.6v-2.667h12.311c0.294 0 0.533-0.239 0.533-0.533s-0.239-0.533-0.533-0.533h-12.844c-0.295 0-0.534 0.239-0.534 0.533v3.2c0.002 1.472 1.195 2.665 2.667 2.667h22.4c1.472-0.002 2.665-1.195 2.667-2.667v-3.2c0-0.294-0.238-0.533-0.534-0.533z"></path>
<path d="M12.8 28.256v1.067c0 0.295 0.239 0.533 0.533 0.533s0.533-0.239 0.533-0.533v-1.067c0-0.295-0.239-0.533-0.533-0.533s-0.533 0.239-0.533 0.533v0zM0.557 10.39l-0.019-0c-0.285 0-0.522 0.226-0.532 0.514-0.004 0.095-0.006 0.19-0.006 0.286 0 0.295 0.239 0.533 0.533 0.533s0.533-0.239 0.533-0.533v0c0-0.083 0.002-0.166 0.005-0.248 0-0.006 0-0.012 0-0.019 0-0.288-0.228-0.522-0.514-0.532l-0.001-0zM2.861 6.966c0.12-0.115 0.244-0.225 0.372-0.33 0.12-0.099 0.196-0.247 0.196-0.413 0-0.295-0.239-0.533-0.533-0.533-0.128 0-0.246 0.045-0.338 0.121l0.001-0.001c-0.151 0.124-0.298 0.254-0.437 0.389-0.109 0.098-0.178 0.24-0.178 0.397 0 0.294 0.239 0.533 0.533 0.533 0.151 0 0.287-0.063 0.384-0.164l0-0zM1.451 7.841c-0.070-0.036-0.152-0.056-0.239-0.056-0.208 0-0.387 0.118-0.476 0.291l-0.001 0.003c-0.087 0.174-0.168 0.352-0.241 0.534-0.020 0.054-0.032 0.117-0.032 0.182 0 0.295 0.239 0.534 0.534 0.534 0.217 0 0.404-0.13 0.487-0.316l0.001-0.003c0.061-0.154 0.13-0.305 0.204-0.453 0.036-0.070 0.057-0.152 0.057-0.239 0-0.207-0.118-0.387-0.291-0.475l-0.003-0.001zM2.412 2.225c0.090 0 0.182-0.023 0.265-0.071 0.145-0.083 0.291-0.162 0.441-0.235 0.264-0.13 0.373-0.45 0.243-0.714-0.089-0.178-0.27-0.298-0.479-0.298-0.086 0-0.167 0.020-0.238 0.056l0.003-0.001c-0.171 0.084-0.338 0.173-0.502 0.267-0.161 0.094-0.267 0.266-0.267 0.462 0 0.295 0.239 0.534 0.534 0.534 0 0 0 0 0 0v0zM7.467 28.256v1.067c0 0.294 0.239 0.533 0.533 0.533s0.533-0.239 0.533-0.533v0-1.067c0-0.294-0.239-0.533-0.533-0.533s-0.533 0.239-0.533 0.533v0zM31.208 9.307c0.198-0.081 0.335-0.272 0.335-0.495 0-0.071-0.014-0.139-0.039-0.201l0.001 0.004c-0.090-0.225-0.171-0.401-0.259-0.573l0.018 0.038c-0.090-0.176-0.269-0.294-0.477-0.294-0.294 0-0.533 0.239-0.533 0.533 0 0.087 0.021 0.169 0.058 0.242l-0.001-0.003c0.074 0.148 0.143 0.298 0.204 0.453 0.081 0.198 0.272 0.335 0.495 0.335 0.071 0 0.14-0.014 0.202-0.040l-0.004 0.001zM31.994 10.904c-0.010-0.295-0.271-0.531-0.551-0.514-0.286 0.010-0.515 0.245-0.515 0.533 0 0.007 0 0.013 0 0.020l-0-0.001c0.003 0.082 0.005 0.165 0.005 0.248 0 0.295 0.239 0.533 0.533 0.533s0.533-0.239 0.533-0.533v0c0-0.096-0.002-0.19-0.006-0.286zM29.854 1.23c-0.121-0.072-0.285-0.161-0.453-0.245l-0.049-0.022c-0.069-0.034-0.149-0.054-0.235-0.054-0.209 0-0.39 0.12-0.478 0.294l-0.001 0.003c-0.13 0.264-0.021 0.584 0.243 0.714 0.15 0.073 0.296 0.152 0.44 0.235 0.071 0.038 0.156 0.060 0.245 0.060 0.295 0 0.534-0.239 0.534-0.534 0-0.188-0.098-0.354-0.245-0.449l-0.002-0.001zM24.533 29.323v-1.067c0-0.294-0.239-0.533-0.533-0.533s-0.533 0.239-0.533 0.533v1.067c0 0.294 0.239 0.533 0.533 0.533s0.533-0.239 0.533-0.533v0zM19.2 29.323v-1.067c0-0.294-0.239-0.533-0.533-0.533s-0.533 0.239-0.533 0.533v1.067c0 0.294 0.239 0.533 0.533 0.533s0.533-0.239 0.533-0.533v0zM29.442 5.81c-0.091-0.075-0.209-0.12-0.338-0.12-0.295 0-0.533 0.239-0.533 0.533 0 0.166 0.076 0.314 0.195 0.412l0.001 0.001c0.128 0.105 0.253 0.215 0.372 0.33 0.097 0.101 0.233 0.164 0.384 0.164 0.294 0 0.533-0.239 0.533-0.533 0-0.158-0.068-0.299-0.177-0.397l-0-0c-0.135-0.131-0.277-0.258-0.425-0.38l-0.012-0.010zM3.248 11.991c-0.013-0.001-0.028-0.002-0.043-0.002-0.28 0-0.51 0.218-0.527 0.494l-0 0.002c-0.007 0.101-0.010 0.202-0.010 0.305 0 0.294 0.239 0.533 0.533 0.533s0.533-0.239 0.533-0.533v0c0-0.077 0.003-0.154 0.008-0.229 0.001-0.011 0.001-0.024 0.001-0.038 0-0.281-0.217-0.511-0.493-0.532l-0.002-0zM10.565 11.778c-0.263 0.036-0.463 0.259-0.463 0.529 0 0.024 0.002 0.048 0.005 0.072l-0-0.003c0.018 0.136 0.026 0.273 0.026 0.414v0.092c0 0.295 0.238 0.534 0.534 0.534s0.533-0.238 0.533-0.534v-0.092c0-0.186-0.012-0.372-0.036-0.553-0.034-0.263-0.257-0.464-0.527-0.464-0.025 0-0.051 0.002-0.075 0.005l0.003-0zM9.963 1.61c0.157 0.059 0.311 0.124 0.464 0.192 0.064 0.029 0.139 0.047 0.218 0.047 0.294 0 0.533-0.239 0.533-0.533 0-0.216-0.128-0.401-0.312-0.485l-0.003-0.001c-0.109-0.053-0.281-0.126-0.455-0.194l-0.067-0.023c-0.056-0.021-0.12-0.034-0.187-0.034-0.227 0-0.421 0.141-0.499 0.34l-0.001 0.004c-0.022 0.056-0.035 0.122-0.035 0.19 0 0.226 0.141 0.42 0.341 0.497l0.004 0.001zM9.756 6.045c0.145 0.080 0.287 0.166 0.424 0.257 0.085 0.060 0.191 0.097 0.306 0.097 0.294 0 0.533-0.239 0.533-0.533 0-0.188-0.098-0.354-0.245-0.449l-0.002-0.001c-0.162-0.108-0.33-0.21-0.502-0.304-0.074-0.042-0.163-0.066-0.257-0.066-0.2 0-0.375 0.11-0.466 0.273l-0.001 0.003c-0.041 0.074-0.066 0.162-0.066 0.257 0 0.2 0.11 0.375 0.273 0.466l0.003 0.001zM0.533 3.723c0.145 0 0.289-0.059 0.394-0.174 0.055-0.060 0.111-0.12 0.169-0.178 0.089-0.095 0.144-0.224 0.144-0.365 0-0.295-0.239-0.534-0.534-0.534-0.145 0-0.277 0.058-0.373 0.152l0-0c-0.066 0.067-0.131 0.136-0.195 0.206-0.086 0.094-0.139 0.221-0.139 0.359 0 0.294 0.239 0.533 0.533 0.534h0zM8.917 10.278c0.13 0.104 0.252 0.216 0.363 0.336 0.098 0.112 0.242 0.182 0.401 0.182 0.295 0 0.534-0.239 0.534-0.534 0-0.145-0.058-0.277-0.152-0.373l0 0c-0.148-0.159-0.31-0.31-0.482-0.446-0.090-0.072-0.206-0.116-0.332-0.116-0.295 0-0.533 0.239-0.533 0.533 0 0.169 0.078 0.319 0.2 0.417l0.001 0.001zM11.901 8.067c0.096 0.151 0.262 0.25 0.451 0.25 0.106 0 0.204-0.031 0.287-0.084l-0.002 0.001c0.249-0.157 0.324-0.487 0.166-0.736-0.121-0.191-0.23-0.348-0.346-0.501l0.014 0.019c-0.099-0.13-0.253-0.212-0.426-0.212-0.121 0-0.233 0.040-0.322 0.108l0.001-0.001c-0.13 0.098-0.212 0.253-0.212 0.426 0 0.121 0.040 0.233 0.108 0.322l-0.001-0.001c0.1 0.132 0.194 0.268 0.282 0.408zM12.148 2.834c0.132 0.102 0.262 0.208 0.388 0.318 0.101 0.088 0.226 0.13 0.35 0.13 0 0 0 0 0 0 0.294 0 0.533-0.239 0.533-0.533 0-0.16-0.071-0.304-0.183-0.402l-0.001-0.001c-0.142-0.124-0.288-0.244-0.438-0.359-0.085-0.061-0.192-0.097-0.307-0.097-0.295 0-0.534 0.239-0.534 0.534 0 0.164 0.074 0.31 0.19 0.408l0.001 0.001zM4.896 1.274c0.038 0 0.076-0.004 0.114-0.012 0.164-0.036 0.329-0.068 0.495-0.094 0.256-0.041 0.45-0.261 0.45-0.526 0-0.030-0.002-0.059-0.007-0.088l0 0.003c-0.041-0.256-0.26-0.45-0.525-0.45-0.030 0-0.060 0.003-0.089 0.007l0.003-0c-0.187 0.030-0.372 0.065-0.555 0.105-0.241 0.054-0.419 0.267-0.419 0.521 0 0.294 0.238 0.533 0.532 0.533h0zM7.517 1.076c0.169 0.012 0.336 0.028 0.5 0.048 0.022 0.003 0.046 0.005 0.072 0.005 0.294 0 0.533-0.239 0.533-0.533 0-0.273-0.205-0.498-0.469-0.529l-0.003-0c-0.145-0.020-0.338-0.040-0.534-0.053l-0.029-0.002c-0.010-0.001-0.022-0.001-0.033-0.001-0.282 0-0.514 0.218-0.534 0.496l-0 0.002c-0.001 0.011-0.001 0.023-0.001 0.035 0 0.282 0.219 0.513 0.496 0.532l0.002 0zM13.058 9.256c-0.24 0.056-0.416 0.267-0.416 0.52 0 0.042 0.005 0.082 0.014 0.121l-0.001-0.004c0.037 0.16 0.066 0.322 0.088 0.486 0.037 0.262 0.26 0.461 0.529 0.461 0.025 0 0.050-0.002 0.074-0.005l-0.003 0c0.262-0.037 0.462-0.259 0.462-0.529 0-0.025-0.002-0.050-0.005-0.074l0 0.003c-0.027-0.195-0.062-0.388-0.105-0.579-0.056-0.239-0.268-0.415-0.521-0.415-0.042 0-0.082 0.005-0.121 0.014l0.004-0.001zM4.773 5.697c0.060 0 0.121-0.010 0.18-0.032 0.155-0.056 0.312-0.105 0.473-0.147 0.23-0.063 0.397-0.27 0.397-0.516 0-0.048-0.006-0.095-0.018-0.14l0.001 0.004c-0.063-0.23-0.271-0.397-0.517-0.397-0.048 0-0.095 0.006-0.139 0.018l0.004-0.001c-0.189 0.050-0.376 0.109-0.56 0.174-0.208 0.076-0.355 0.272-0.355 0.502 0 0.294 0.239 0.533 0.533 0.533 0 0 0.001 0 0.002 0h-0zM7.397 5.341c0.166 0.013 0.33 0.033 0.492 0.059 0.026 0.005 0.056 0.007 0.087 0.007 0.264 0 0.483-0.192 0.525-0.444l0-0.003c0.005-0.026 0.007-0.056 0.007-0.086 0-0.264-0.191-0.483-0.443-0.526l-0.003-0c-0.157-0.028-0.357-0.053-0.56-0.069l-0.023-0.001c-0.012-0.001-0.027-0.002-0.041-0.002-0.294 0-0.533 0.239-0.533 0.533 0 0.28 0.216 0.51 0.49 0.531l0.002 0zM6.547 9.609c0.018 0 0.037-0 0.056-0.003 0.101-0.011 0.218-0.017 0.336-0.017 0.056 0 0.111 0.001 0.167 0.004l-0.008-0c0.010 0.001 0.021 0.001 0.033 0.001 0.284 0 0.515-0.225 0.526-0.506l0-0.001c0-0.008 0.001-0.017 0.001-0.027 0-0.285-0.224-0.518-0.505-0.533l-0.001-0c-0.065-0.004-0.141-0.005-0.217-0.005-0.155 0-0.308 0.008-0.459 0.024l0.019-0.002c-0.269 0.030-0.475 0.256-0.475 0.53 0 0.293 0.237 0.531 0.529 0.534h0z"></path>
</symbol>
<symbol id="icon-instagram" viewBox="0 0 32 32">
<path d="M19.751 6h-7.503c-3.451 0.002-6.248 2.799-6.248 6.251v0 7.499c0 3.452 2.8 6.251 6.251 6.251h7.499c3.452 0 6.251-2.8 6.251-6.251v-7.497c0-3.452-2.8-6.251-6.251-6.251zM24.124 19.751c-0.004 2.414-1.96 4.37-4.373 4.373h-7.503c-2.414-0.004-4.37-1.96-4.373-4.373v-7.503c0.004-2.414 1.96-4.37 4.373-4.373h7.502c2.414 0.004 4.37 1.96 4.373 4.373v7.502z"></path>
<path d="M16 11c-2.761 0-5 2.239-5 5s2.239 5 5 5v0c2.761 0 5-2.239 5-5s-2.239-5-5-5v0zM16 19.125c-1.725-0.002-3.123-1.4-3.125-3.125v-0c0.002-1.725 1.4-3.124 3.125-3.125h0c1.725 0.002 3.124 1.4 3.125 3.125v0c-0.002 1.725-1.4 3.123-3.125 3.125h-0zM21.375 11.292c0.368 0 0.667-0.298 0.667-0.667s-0.298-0.667-0.667-0.667v0c-0.368 0-0.667 0.298-0.667 0.667s0.298 0.667 0.667 0.667v0z"></path>
</symbol>
<symbol id="icon-mouse" viewBox="0 0 32 32">
<path d="M15.975 0c-5.191 0-9.413 4.222-9.413 9.413v13.174c0 5.19 4.222 9.413 9.414 9.413s9.413-4.222 9.413-9.413v-13.174c-0.001-5.19-4.223-9.413-9.414-9.413zM23.468 22.587c0 4.131-3.362 7.493-7.493 7.493s-7.493-3.362-7.493-7.493v-13.174c0-4.131 3.362-7.493 7.493-7.493s7.493 3.362 7.493 7.493v13.174z"></path>
<path d="M15.976 6.366c-0.53 0-0.96 0.43-0.96 0.96v0 4.418c0 0.53 0.43 0.96 0.96 0.96s0.96-0.43 0.96-0.96v0-4.418c0-0.53-0.43-0.96-0.96-0.96v0z"></path>
</symbol>
<symbol id="icon-phone-call" viewBox="0 0 32 32">
<path d="M27.981 23.045c-0.090-0.685-0.492-1.26-1.055-1.587l-0.010-0.006-6.907-3.977c-0.31-0.181-0.682-0.287-1.079-0.287-0.598 0-1.14 0.242-1.532 0.634l-1.36 1.36c-0.181 0.182-0.431 0.295-0.708 0.295-0.238 0-0.456-0.083-0.627-0.222l0.002 0.001c-1.143-0.926-2.166-1.849-3.138-2.823l-0.001-0.001c-0.974-0.973-1.897-1.996-2.765-3.066l-0.057-0.073c-0.137-0.169-0.22-0.388-0.22-0.625 0-0.277 0.113-0.527 0.295-0.708l1.36-1.36c0.391-0.392 0.633-0.933 0.633-1.53 0-0.397-0.107-0.769-0.293-1.089l0.006 0.010-3.977-6.907c-0.332-0.574-0.907-0.976-1.581-1.065l-0.011-0.001c-0.087-0.013-0.188-0.020-0.29-0.020-0.596 0-1.134 0.243-1.523 0.634l-2.051 2.051c-1.431 1.431-1.453 4.048-0.064 7.369 1.336 3.193 3.828 6.709 7.019 9.9s6.707 5.684 9.901 7.019c1.635 0.684 3.099 1.027 4.336 1.027 1.275 0 2.307-0.364 3.033-1.091l2.051-2.051c0.48-0.48 0.704-1.14 0.615-1.813zM19.556 18.263l6.907 3.977c0.343 0.196 0.568 0.533 0.62 0.924 0.007 0.050 0.011 0.108 0.011 0.168 0 0.28-0.092 0.538-0.248 0.746l0.002-0.003-9.18-5.24 0.373-0.372c0.4-0.4 1.024-0.483 1.515-0.2zM4.836 0.917c0.398 0.053 0.731 0.286 0.921 0.614l0.003 0.006 3.977 6.907c0.105 0.18 0.167 0.396 0.167 0.627 0 0.347-0.14 0.661-0.367 0.889l-0.343 0.343-5.267-9.149c0.205-0.154 0.463-0.247 0.743-0.247 0.058 0 0.115 0.004 0.171 0.012l-0.006-0.001zM24.676 26.268c-1.137 1.136-3.463 1.089-6.38-0.131-3.088-1.292-6.5-3.715-9.609-6.824s-5.533-6.521-6.823-9.609c-1.22-2.917-1.268-5.241-0.132-6.379l1.523-1.523 5.276 9.164-0.353 0.355c-0.346 0.345-0.56 0.822-0.56 1.348 0 0.453 0.159 0.87 0.423 1.196l-0.003-0.004c0.947 1.17 1.891 2.218 2.888 3.213l0 0c0.995 0.996 2.042 1.94 3.137 2.828l0.075 0.059c0.76 0.612 1.852 0.552 2.543-0.139l0.323-0.323 9.192 5.247-1.52 1.52z"></path>
</symbol>
<symbol id="icon-placeholder" viewBox="0 0 32 32">
<path d="M16.45 5.975c-1.581 0.002-2.861 1.283-2.863 2.864v0c0.002 1.58 1.283 2.861 2.863 2.863h0c1.581-0.002 2.862-1.282 2.864-2.863v-0c-0.002-1.581-1.283-2.862-2.864-2.864h-0zM16.45 10.884c-1.129-0.002-2.043-0.916-2.045-2.045v-0c0.001-1.129 0.916-2.044 2.045-2.046h0c1.129 0.001 2.045 0.916 2.046 2.046v0c-0.002 1.129-0.917 2.044-2.046 2.045h-0z"></path>
<path d="M21.925 3.364c-1.412-1.419-3.366-2.298-5.526-2.298-0.007 0-0.015 0-0.022 0h0.001c-0.006-0-0.014-0-0.021-0-2.159 0-4.114 0.878-5.525 2.297l-0 0c-2.742 2.741-3.083 7.901-0.738 11.026l6.285 9.076 6.275-9.065c2.354-3.137 2.014-8.297-0.729-11.038zM21.99 13.924l-5.612 8.105-5.621-8.117c-2.127-2.835-1.822-7.494 0.653-9.969 1.264-1.271 3.015-2.058 4.949-2.058 0.007 0 0.014 0 0.021 0h-0.001c1.877 0 3.641 0.731 4.969 2.059 2.475 2.475 2.78 7.133 0.643 9.981z"></path>
</symbol>
<symbol id="icon-vk" viewBox="0 0 32 32">
<path d="M30.519 23.653c-0.034-0.081-0.066-0.145-0.102-0.208l0.006 0.011c-0.485-0.949-1.413-2.115-2.784-3.496l-0.029-0.032-0.013-0.015-0.015-0.016h-0.016c-0.621-0.644-1.015-1.076-1.18-1.297-0.301-0.421-0.369-0.849-0.204-1.281 0.116-0.327 0.553-1.017 1.312-2.072 0.399-0.56 0.713-1.007 0.947-1.344 1.681-2.427 2.411-3.976 2.187-4.651l-0.087-0.159c-0.057-0.093-0.208-0.181-0.451-0.26-0.244-0.080-0.555-0.093-0.933-0.040l-4.2 0.032c-0.067-0.027-0.164-0.024-0.291 0.008l-0.189 0.047-0.073 0.040-0.057 0.048c-0.063 0.046-0.116 0.101-0.159 0.163l-0.001 0.002c-0.059 0.080-0.108 0.171-0.144 0.27l-0.002 0.008c-0.5 1.402-1.026 2.576-1.63 3.702l0.070-0.144c-0.36 0.653-0.689 1.22-0.992 1.7-0.3 0.48-0.553 0.833-0.757 1.060s-0.388 0.408-0.555 0.547c-0.164 0.136-0.291 0.195-0.379 0.173-0.152-0.035-0.235-0.057-0.317-0.081l0.069 0.017c-0.139-0.1-0.25-0.23-0.325-0.381l-0.003-0.006c-0.087-0.18-0.146-0.389-0.166-0.61l-0.001-0.007c-0.024-0.181-0.043-0.403-0.052-0.626l-0-0.014c-0.004-0.18-0.003-0.433 0.008-0.76 0.009-0.327 0.013-0.548 0.013-0.664 0-0.4 0.008-0.836 0.023-1.305l0.036-1.115c0.011-0.275 0.015-0.564 0.015-0.871s-0.016-0.545-0.051-0.72c-0.038-0.193-0.091-0.362-0.16-0.524l0.006 0.017c-0.063-0.156-0.165-0.285-0.296-0.377l-0.003-0.002c-0.14-0.093-0.303-0.166-0.477-0.211l-0.011-0.002c-0.515-0.127-1.171-0.195-1.968-0.205-1.808-0.021-2.969 0.105-3.484 0.38-0.217 0.127-0.401 0.284-0.552 0.47l-0.003 0.004c-0.173 0.232-0.2 0.36-0.072 0.38 0.583 0.095 0.996 0.321 1.239 0.68l0.088 0.189c0.067 0.137 0.136 0.38 0.204 0.728 0.067 0.348 0.112 0.733 0.131 1.155 0.048 0.769 0.048 1.429 0 1.977-0.049 0.548-0.093 0.976-0.139 1.281-0.049 0.408-0.181 0.778-0.379 1.103l0.007-0.012c-0.019 0.032-0.043 0.058-0.071 0.079l-0.001 0c-0.116 0.050-0.252 0.080-0.395 0.080h-0c-0.136 0-0.301-0.075-0.495-0.223-0.227-0.181-0.426-0.381-0.599-0.602l-0.006-0.008c-0.245-0.315-0.48-0.669-0.685-1.041l-0.021-0.042c-0.263-0.464-0.535-1.013-0.817-1.645l-0.233-0.459c-0.145-0.296-0.344-0.725-0.597-1.289-0.177-0.369-0.403-0.909-0.611-1.459l-0.059-0.179c-0.066-0.206-0.187-0.378-0.347-0.505l-0.002-0.002-0.073-0.047c-0.161-0.114-0.352-0.197-0.559-0.236l-0.009-0.001-3.995 0.031c-0.408 0-0.685 0.101-0.831 0.301l-0.059 0.095c-0.029 0.064-0.045 0.139-0.045 0.218 0 0.012 0 0.025 0.001 0.037l-0-0.002c0 0.116 0.029 0.259 0.088 0.427 0.708 1.814 1.347 3.231 2.044 4.614l-0.142-0.312c0.683 1.405 1.278 2.498 1.912 3.566l-0.125-0.228c0.505 0.844 1.020 1.64 1.545 2.388 0.524 0.749 0.872 1.229 1.041 1.44 0.171 0.211 0.304 0.369 0.401 0.475l0.365 0.379c0.233 0.253 0.575 0.557 1.027 0.911 0.453 0.353 0.953 0.701 1.503 1.044s1.187 0.621 1.917 0.837c0.539 0.171 1.158 0.27 1.8 0.27 0.115 0 0.23-0.003 0.343-0.009l-0.016 0.001h1.676c0.34-0.032 0.597-0.147 0.773-0.347l0.057-0.080c0.047-0.085 0.085-0.183 0.108-0.286l0.001-0.007c0.035-0.131 0.051-0.276 0.051-0.435-0.009-0.453 0.023-0.861 0.095-1.225 0.053-0.309 0.14-0.585 0.258-0.844l-0.009 0.021c0.092-0.184 0.196-0.34 0.313-0.467 0.073-0.087 0.154-0.162 0.244-0.227l0.004-0.003c0.032-0.018 0.070-0.037 0.11-0.052l0.006-0.002c0.233-0.085 0.507-0.003 0.824 0.245 0.316 0.248 0.612 0.553 0.889 0.917s0.609 0.773 0.999 1.227c0.388 0.453 0.729 0.789 1.020 1.011l0.292 0.191c0.195 0.127 0.447 0.243 0.757 0.348s0.583 0.132 0.817 0.080l3.732-0.064c0.368 0 0.656-0.067 0.86-0.197 0.204-0.133 0.325-0.277 0.364-0.436 0.020-0.086 0.031-0.184 0.031-0.285 0-0.089-0.009-0.177-0.026-0.261l0.001 0.008c-0.022-0.158-0.057-0.299-0.106-0.435l0.005 0.015z"></path>
</symbol>
<symbol id="icon-youtube" viewBox="0 0 32 32">
<path d="M23.795 6.667h-15.589c-3.059 0-5.539 2.628-5.539 5.869v8.261c0 3.239 2.48 5.869 5.539 5.869h15.589c3.059 0 5.539-2.628 5.539-5.869v-8.261c0-3.24-2.48-5.869-5.539-5.869zM20.049 17.068l-7.292 3.687c-0.195 0.099-0.419-0.052-0.419-0.28v-7.603c0-0.232 0.231-0.381 0.425-0.277l7.292 3.917c0.216 0.116 0.213 0.445-0.007 0.556z"></path>
</symbol>
</defs>
</svg>
